<svg width="203" height="79" viewBox="0 0 203 79" fill="none" xmlns="http://www.w3.org/2000/svg">
<path d="M22.5988 25.6899L24.0368 25.2829C24.8368 25.279 25.2387 25.6771 25.2426 26.477C25.2455 27.0637 24.8875 27.4788 24.1686 27.7223C23.4498 27.9658 22.9304 28.0883 22.6104 28.0898C21.3304 28.096 20.3532 27.3008 19.6788 25.704C19.3012 24.8258 18.9722 22.9741 18.6919 20.1487C18.4382 17.3233 18.1858 14.7778 17.9348 12.5123C17.7104 10.22 17.4248 9.07475 17.0781 9.07643C16.7582 9.07798 16.3671 10.9332 15.9051 14.6422C15.8027 15.5227 15.7131 16.2831 15.6362 16.9235C15.5858 17.5371 15.4963 18.3242 15.3676 19.2848C15.2655 20.2187 15.1888 20.8991 15.1375 21.326C14.9329 23.1137 14.6059 24.4353 14.1567 25.2908C13.7074 26.1196 12.9761 26.5365 11.9628 26.5414C10.6828 26.5476 9.70559 25.7524 9.03117 24.1556C8.62691 23.2776 8.07146 21.4669 7.36481 18.7236C6.68471 15.9536 6.04596 13.4633 5.44857 11.2529C4.87784 9.04226 4.48581 7.93748 4.27248 7.93851C3.92582 7.94019 3.64516 10.5549 3.43051 15.7827C3.24239 20.9837 3.15519 24.9975 3.16889 27.8241C3.17264 28.5974 2.77452 28.986 1.97453 28.9899C1.54787 28.992 1.24062 28.8735 1.0528 28.6344C0.864839 28.3686 0.770214 28.1024 0.768921 27.8357C0.756507 25.2758 0.83206 21.6087 0.995578 16.8345C1.18563 12.0335 1.42461 9.07234 1.71251 7.95093C2.13141 6.34888 2.96752 5.54481 4.22084 5.53874C5.47416 5.53266 6.39803 6.32819 6.99245 7.92532C7.31658 8.7771 7.8189 10.628 8.49939 13.4781C9.20642 16.3014 9.87184 18.7915 10.4956 20.9485C11.1193 23.0788 11.5911 24.1432 11.9111 24.1417C12.2578 24.14 12.5329 23.1253 12.7364 21.0976C13.6079 13.84 14.1751 9.83718 14.4382 9.08923C14.6746 8.34141 14.9784 7.75326 15.3496 7.32479C15.7476 6.89619 16.3199 6.68008 17.0665 6.67646C18.3465 6.67025 19.2704 7.46578 19.8381 9.06305C20.054 9.59534 20.2756 11.2876 20.5027 14.1399C20.7299 16.9922 21.0094 19.6308 21.3411 22.0559C21.6729 24.481 22.0921 25.6923 22.5988 25.6899ZM41.9628 25.516C41.9628 25.516 42.389 25.4072 43.2413 25.1898C44.0413 25.1859 44.4432 25.5839 44.4471 26.3839C44.4499 26.9706 44.052 27.3992 43.2533 27.6697C42.7741 27.8321 42.2945 27.9144 41.8145 27.9167C41.3612 27.9189 40.9206 27.8144 40.4929 27.6031C40.0652 27.3918 39.7304 27.0735 39.4883 26.648C39.0849 25.9566 38.788 25.2114 38.5975 24.4123L38.4342 23.733C37.9846 24.5086 36.8823 25.4206 35.1274 26.4691C33.3991 27.5175 31.5483 28.0465 29.575 28.0561C28.5084 28.0612 27.5731 27.6658 26.7692 26.8696C25.9654 26.0735 25.5608 25.1422 25.5557 24.0755C25.5431 21.4889 26.5989 19.2437 28.723 17.3401C30.847 15.4097 33.0024 14.4393 35.189 14.4287C36.389 14.4229 37.4167 14.6445 38.2723 15.0937C39.1543 15.5161 39.5964 15.954 39.5986 16.4073C39.6025 17.2073 39.2045 17.6092 38.4045 17.6131C38.2445 17.6139 37.8572 17.4824 37.2426 17.2188C36.6279 16.9551 35.9473 16.825 35.2006 16.8286C33.7607 16.8356 32.1908 17.5499 30.491 18.9715C28.7911 20.3664 27.9459 22.0639 27.9556 24.0639C27.9576 24.4639 28.1194 24.8364 28.4411 25.1815C28.7893 25.4998 29.1634 25.658 29.5634 25.6561C31.1367 25.6485 32.6013 25.228 33.9573 24.3948C35.3132 23.5348 36.1765 22.8373 36.5472 22.3022C36.9178 21.7404 37.222 21.2322 37.4598 20.7777C37.6976 20.3232 37.8695 20.0291 37.9755 19.8952C38.1081 19.7346 38.3744 19.6533 38.7744 19.6514C39.1744 19.6494 39.4817 19.7946 39.6965 20.0869C39.9112 20.3792 40.1135 20.8449 40.3033 21.484C40.4929 22.0964 40.6829 22.7888 40.8734 23.5612C41.0638 24.3336 41.2263 24.8529 41.3609 25.1189C41.5222 25.3848 41.7228 25.5171 41.9628 25.516ZM55.9954 28.3279C54.5821 28.3348 53.4857 27.7001 52.7061 26.4239C51.9533 25.1475 51.5728 23.6827 51.5648 22.0294C51.5607 21.176 51.9586 20.7474 52.7586 20.7436C53.5586 20.7397 53.9609 21.2177 53.9655 22.1777C53.9702 23.1377 54.1611 24.0035 54.5381 24.775C54.9152 25.5465 55.3704 25.931 55.9038 25.9284C56.4637 25.9256 57.1431 25.789 57.9418 25.5185C58.7405 25.2479 59.1798 25.1125 59.2598 25.1121C60.0598 25.1082 60.4618 25.5063 60.4656 26.3062C60.4685 26.8929 60.0706 27.3215 59.2719 27.5921C57.8342 28.079 56.7421 28.3243 55.9954 28.3279ZM47.8698 2.44704L47.8331 3.12723C47.5286 6.32875 47.3268 8.70309 47.2276 10.2503C47.1551 11.7973 47.1242 13.6641 47.1348 15.8508C47.1453 18.0107 47.2188 19.4237 47.3553 20.0897C47.9885 18.6733 49.0755 17.3614 50.6163 16.1539C52.1571 14.9464 54.0609 14.3372 56.3275 14.3262C57.1275 14.3223 57.5294 14.7204 57.5333 15.5203C57.5372 16.3203 57.1391 16.7223 56.3391 16.7261C55.2458 16.7314 54.2335 16.9364 53.3021 17.3409C52.3974 17.7453 51.6798 18.2421 51.1493 18.8313C50.1414 19.9562 49.5063 20.9593 49.2439 21.8406C49.1913 22.0009 49.0996 22.348 48.9689 22.882C48.8647 23.3891 48.7863 23.7229 48.7338 23.8831C48.708 24.0699 48.6158 24.3104 48.4572 24.6045C48.193 25.1124 47.7676 25.3678 47.1809 25.3707C46.621 25.3734 46.07 24.496 45.5282 22.7386C45.0128 20.9544 44.7518 19.369 44.7451 17.9824C44.7384 16.5957 44.7324 15.3557 44.7271 14.2624C44.7483 13.1423 44.7574 12.2623 44.7543 11.6223C44.7777 10.9555 44.8271 10.1419 44.9024 9.18151C44.9778 8.22114 45.0147 7.59428 45.0133 7.30095C45.0606 6.04738 45.2127 4.41995 45.4696 2.41868C45.5459 1.64497 45.944 1.25637 46.664 1.25288C47.464 1.249 47.8659 1.64705 47.8698 2.44704ZM61.8416 26.3796C61.815 26.3797 61.6155 26.4873 61.2432 26.7025C60.2858 27.2405 59.5804 27.5106 59.1271 27.5128C58.3271 27.5166 57.9252 27.1186 57.9213 26.3186C57.9188 25.8119 58.3168 25.3967 59.1153 25.0728C59.2483 25.0188 59.5676 24.8573 60.0729 24.5881C60.5783 24.319 60.8709 24.1576 60.9506 24.1039C60.8428 23.8644 60.7877 23.5047 60.7854 23.0247C60.7737 20.6247 61.6038 18.5673 63.2755 16.8525C64.9472 15.1377 66.4763 14.277 67.863 14.2702C69.2496 14.2635 70.3446 14.5915 71.1478 15.2543C71.9509 15.8904 72.3547 16.6752 72.3592 17.6085C72.3636 18.5151 72.1541 19.3028 71.7307 19.9716C71.3073 20.6403 70.6438 21.2968 69.7402 21.9412C68.4913 22.854 66.6697 23.9161 64.2756 25.1278C65.346 25.8959 66.8279 26.2754 68.7212 26.2662C70.6145 26.257 72.4796 25.9413 74.3166 25.3191C74.8757 25.1297 75.1953 25.0348 75.2753 25.0344C76.0753 25.0305 76.4772 25.4286 76.4811 26.2286C76.4839 26.8152 76.086 27.2438 75.2873 27.5144C73.0509 28.2719 70.8928 28.6557 68.8128 28.6658C65.8528 28.6802 63.5291 27.9181 61.8416 26.3796ZM63.1853 23.013C67.7076 20.7244 69.966 19.0068 69.9604 17.8601C69.9565 17.0601 69.2879 16.6634 67.9546 16.6698C67.1546 16.6737 66.1578 17.3185 64.964 18.6043C63.7701 19.8635 63.1772 21.333 63.1853 23.013ZM79.9759 17.8115C79.9742 17.4649 80.0796 17.1844 80.2919 16.97C80.504 16.729 80.7968 16.6075 81.1701 16.6057C81.9701 16.6019 82.372 16.9999 82.3759 17.7999C82.3859 19.8532 82.8752 21.7709 83.8438 23.5529C84.839 25.3081 85.9633 26.1826 87.2166 26.1765C87.7766 26.1738 88.9878 22.9946 90.8504 16.6388C91.0865 15.8376 91.5912 15.4352 92.3645 15.4314C92.7645 15.4295 93.0582 15.5081 93.2457 15.6672C93.4331 15.8263 93.5408 16.0391 93.5688 16.3056C93.6234 16.572 93.7059 17.0783 93.8162 17.8244C93.9264 18.5706 94.0634 19.3166 94.227 20.0625C94.364 20.8085 94.5412 21.6076 94.7586 22.4599C95.2479 24.3776 95.7993 25.3349 96.4126 25.3319C96.9192 25.3295 97.3723 25.2606 97.7716 25.1253C98.171 24.9901 98.4106 24.9222 98.4906 24.9218C99.2906 24.918 99.6926 25.316 99.6964 26.116C99.6993 26.7027 99.3413 27.1177 98.6225 27.3612C97.9036 27.6047 97.2375 27.728 96.6242 27.7309C96.0109 27.7339 95.5038 27.643 95.1029 27.4583C94.7019 27.2469 94.3673 26.9952 94.0992 26.7032C93.8846 26.4375 93.6426 26.0387 93.3734 25.5067C93.0772 24.9214 92.7939 24.2428 92.5235 23.4708C92.2798 22.6986 92.1442 22.2459 92.1169 22.1127C92.0896 21.9795 92.0623 21.8463 92.035 21.7131C92.0342 21.5531 92.0203 21.4332 91.9932 21.3533C91.9404 21.4602 91.8879 21.6205 91.8356 21.8341L91.6779 22.3149C91.6251 22.4218 91.5723 22.542 91.5197 22.6756C91.4935 22.7824 91.3622 23.1964 91.1257 23.9175C90.889 24.612 90.6784 25.1731 90.4938 25.6006C90.309 25.9749 90.0578 26.4294 89.7404 26.9643C89.1056 28.0341 88.2282 28.5717 87.1082 28.5771C86.0149 28.5824 84.8657 28.0546 83.6605 26.9938C82.4553 25.9329 81.5151 24.5108 80.8398 22.7274C80.3371 23.5565 79.7275 24.3195 79.0109 25.0163C77.8166 26.1954 76.9399 26.893 76.381 27.1091C75.8487 27.325 75.4359 27.4337 75.1425 27.4351C74.3425 27.439 73.9406 27.0409 73.9367 26.2409C73.9343 25.7343 74.3323 25.319 75.1307 24.9951C75.929 24.6446 76.9382 23.7863 78.1583 22.4204C79.3783 21.0545 79.9842 19.5182 79.9759 17.8115ZM104.092 40.9749C103.372 40.9784 102.97 40.5803 102.886 39.7807C102.746 38.3947 102.223 35.1705 101.319 30.1082C100.441 25.0724 99.9996 22.0078 99.9943 20.9145C99.9845 18.8879 100.923 17.2433 102.81 15.9808C104.698 14.7183 106.815 14.0814 109.161 14.07C110.921 14.0614 112.364 14.5611 113.489 15.569C114.613 16.5769 115.18 17.9342 115.188 19.6408C115.193 20.6541 114.904 21.5889 114.322 22.4451C113.766 23.3011 113.089 23.971 112.292 24.4549C110.59 25.5299 109.166 26.0701 108.019 26.0757C107.219 26.0795 106.818 25.6815 106.814 24.8815C106.81 24.1615 107.208 23.7729 108.008 23.7157C108.834 23.6317 109.832 23.2002 111.002 22.4212C112.198 21.642 112.794 20.7324 112.789 19.6925C112.783 18.6258 112.46 17.8274 111.817 17.2971C111.174 16.7402 110.16 16.4652 108.773 16.4719C107.413 16.4785 106.002 16.8853 104.539 17.6924C103.103 18.4994 102.388 19.5162 102.394 20.7429C102.399 21.9695 102.978 25.8334 104.13 32.3346L104.557 29.6925C104.686 28.8919 105.084 28.4899 105.751 28.4867C106.551 28.4828 106.953 28.8809 106.957 29.6809C106.958 29.8142 106.945 29.9609 106.919 30.121L105.406 39.7685C105.38 40.0086 105.262 40.2625 105.05 40.5302C104.838 40.8246 104.518 40.9728 104.092 40.9749ZM0.999045 58.795L0.916718 58.3154C0.91646 58.262 0.916201 58.2087 0.915943 58.1554C0.912063 57.3554 1.31012 56.9535 2.11011 56.9496C2.8301 56.9461 3.23184 57.3041 3.31533 58.0237C3.7047 61.3286 4.46959 65.0849 5.61 69.2927C6.75029 73.4739 7.61377 75.5631 8.20042 75.5603C8.46709 75.559 8.72923 74.6244 8.98684 72.7564C9.27112 70.8883 9.54096 68.7937 9.79638 66.4724C10.0783 64.1244 10.311 62.6165 10.4945 61.949C10.9667 60.3467 11.8428 59.5424 13.1228 59.5362C13.8961 59.5325 14.4705 59.743 14.8459 60.1679C15.1678 60.5663 15.3963 60.9519 15.5315 61.3245C15.6932 61.6704 15.8279 61.9631 15.9357 62.2026C16.0702 62.4419 16.4365 63.7335 17.0345 66.0773C18.6117 72.3631 19.667 75.5047 20.2003 75.5021C20.4136 75.501 20.7017 74.4196 21.0646 72.2578C21.4273 70.0694 21.8804 67.2672 22.4238 63.8512C22.9939 60.435 23.436 58.1128 23.75 56.8846C24.0906 55.6296 24.3405 54.9084 24.4996 54.721C24.6853 54.5334 24.9515 54.4388 25.2982 54.4371C26.0982 54.4332 26.5001 54.8313 26.504 55.6313C26.5052 55.8713 26.4796 56.0981 26.4273 56.3117C25.772 58.6615 25.0566 62.3584 24.2811 67.4022C23.5322 72.4459 23.0258 75.2484 22.7618 75.8097C22.4979 76.3709 22.2997 76.7586 22.1674 76.9726C22.0617 77.1597 21.836 77.3608 21.4904 77.5758C21.1447 77.7909 20.7186 77.8996 20.2119 77.902C18.8786 77.9085 17.8881 77.1133 17.2403 75.5164C16.7818 74.452 16.2536 72.7612 15.6557 70.444C15.0843 68.1001 14.568 66.1026 14.1066 64.4515C13.6718 62.7736 13.3478 61.9351 13.1344 61.9362C12.9211 61.9372 12.6857 62.885 12.4282 64.7796C12.1973 66.6474 11.9407 68.742 11.6587 71.0634C11.4031 73.358 11.17 74.7859 10.9594 75.3469C10.7488 75.9079 10.5775 76.3221 10.4454 76.5894C10.3133 76.83 10.0347 77.1247 9.60972 77.4734C9.21127 77.7954 8.75872 77.9576 8.25206 77.96C7.77207 77.9624 7.35842 77.8977 7.01111 77.7661C6.69046 77.6343 6.39603 77.409 6.12782 77.0903C5.85948 76.745 5.46965 76.0935 4.95833 75.136C4.47368 74.1783 3.76943 71.9284 2.84557 68.3861C1.94839 64.8438 1.33288 61.6467 0.999045 58.795ZM37.3446 57.9787C37.7712 57.9767 38.2122 58.1745 38.6675 58.5723C39.1226 58.9435 39.3512 59.3424 39.3533 59.769C39.3552 60.169 39.17 60.4766 38.7977 60.6917C38.4521 60.9067 38.066 61.0153 37.6393 61.0173C37.2127 61.0194 36.8518 60.8345 36.5566 60.4626C36.288 60.0639 36.1526 59.6379 36.1504 59.1845C36.1465 58.3845 36.5446 57.9826 37.3446 57.9787ZM33.8168 72.876C32.3312 74.4832 30.8168 75.6373 29.2735 76.3381C28.7945 76.5537 28.4084 76.6623 28.1151 76.6637C27.3151 76.6676 26.9131 76.2695 26.9093 75.4695C26.9068 74.9629 27.3048 74.5476 28.1032 74.2237C28.5291 74.0617 29.0876 73.739 29.7786 73.2556C30.4962 72.7721 30.9745 72.4098 31.2133 72.1686C31.4521 71.9275 31.8633 71.4855 32.4469 70.8426C33.0571 70.1997 33.5348 69.7173 33.8799 69.3957C34.2249 69.0473 34.6899 68.6984 35.2748 68.3489C35.8865 67.9993 36.4456 67.8232 36.9523 67.8208C37.9923 67.8157 38.7941 68.1852 39.3577 68.9291C39.9213 69.673 40.2586 70.4981 40.3697 71.4042C40.6747 73.8028 41.1472 75.0005 41.7872 74.9974C42.2938 74.9949 42.9465 74.8584 43.7452 74.5879C44.5439 74.3173 44.9832 74.1819 45.0632 74.1815C45.8632 74.1776 46.2652 74.5757 46.269 75.3757C46.2719 75.9623 45.874 76.3909 45.0753 76.6615C43.6376 77.1484 42.4654 77.3941 41.5588 77.3985C40.6788 77.4028 39.957 77.033 39.3934 76.289C38.8298 75.5451 38.4924 74.72 38.3814 73.8139C38.0764 71.4153 37.6039 70.2176 36.9639 70.2207C36.6173 70.2224 36.2184 70.451 35.7672 70.9065C35.3427 71.3353 34.9977 71.6836 34.7323 71.9516C34.4668 72.1929 34.1616 72.501 33.8168 72.876ZM84.6655 75.1895C84.6706 76.2561 83.4466 76.7954 80.9933 76.8073C79.8466 76.8129 78.9521 76.5639 78.3096 76.0603C77.6938 75.5566 77.3829 74.6781 77.3768 73.4248C77.3707 72.1715 77.2588 71.092 77.0411 70.1864C76.8234 69.2808 76.5279 68.8289 76.1545 68.8307C74.8479 68.837 73.5329 69.8834 72.2097 71.9698C71.6538 72.8259 71.0581 73.6954 70.4223 74.5785C69.8131 75.4348 69.07 76.1718 68.193 76.7894C67.3425 77.3802 66.4106 77.678 65.3973 77.6829C63.184 77.6937 61.9878 75.7261 61.8087 71.7803C60.4791 72.5601 59.5214 73.0314 58.9355 73.1942C58.3495 73.3304 57.8434 73.4528 57.4172 73.5616C57.0178 73.6702 56.6582 73.7653 56.3386 73.8468C56.0455 73.9016 55.6335 74.1702 55.1025 74.6528C54.5715 75.1354 54.0403 75.578 53.5089 75.9806C52.9774 76.3565 52.405 76.5459 51.7917 76.5489C50.725 76.5541 49.8556 75.9983 49.1836 74.8815C48.5113 73.7381 48.1713 72.3664 48.1636 70.7664C48.1557 69.1398 48.3413 66.1655 48.7203 61.8436C49.0992 57.4951 49.2824 54.0275 49.2699 51.4408C49.2682 51.0942 49.3735 50.8137 49.5858 50.5993C49.8246 50.3581 50.1174 50.2367 50.4641 50.235C51.264 50.2311 51.666 50.6292 51.6699 51.4292C51.6827 54.0692 51.4999 57.6301 51.1217 62.112C50.7433 66.5672 50.5564 69.2748 50.561 70.2348C50.5657 71.1948 50.6767 72.0876 50.894 72.9132C51.1114 73.7388 51.4067 74.1507 51.78 74.1489C51.94 74.1481 52.2058 73.9602 52.5773 73.5851C53.7184 72.4328 55.048 71.6664 56.5662 71.2857C58.3239 70.7972 60.0668 70.0287 61.7951 68.9803C61.9855 64.2593 62.8193 60.2286 64.2965 56.888C65.8002 53.5207 67.592 51.832 69.672 51.8219C71.112 51.8149 72.2078 52.3296 72.9595 53.366C73.7112 54.4023 74.0912 55.7739 74.0995 57.4805C74.1077 59.1871 73.6892 60.8692 72.8439 62.5266C72.0252 64.1573 70.9648 65.4691 69.663 66.4621C67.6969 67.965 65.8631 69.2539 64.1617 70.3288C64.1777 73.6355 64.5857 75.2868 65.3857 75.283C66.5323 75.2774 67.7939 74.2313 69.1705 72.1446C69.7797 71.2883 70.4022 70.4319 71.0381 69.5755C72.5746 67.488 74.2762 66.4398 76.1429 66.4307C78.5429 66.4191 79.7538 68.6799 79.7758 73.2132C79.7797 74.0132 80.1683 74.4113 80.9416 74.4075C81.7416 74.4036 82.3413 74.3341 82.7406 74.1988C83.14 74.0635 83.3797 73.9957 83.4597 73.9953C84.2596 73.9914 84.6616 74.3895 84.6655 75.1895ZM64.3073 67.3681C65.4239 66.6693 66.5667 65.8638 67.7356 64.9514C70.3926 62.9385 71.7131 60.2921 71.6972 57.0121C71.6937 56.2922 71.5306 55.6529 71.2079 55.0945C70.885 54.5094 70.3769 54.2185 69.6836 54.2219C68.5903 54.2272 67.5031 55.4858 66.4219 57.9977C65.3407 60.5097 64.6359 63.6331 64.3073 67.3681ZM108.894 52.6717C109.667 52.668 110.321 52.8248 110.856 53.1422C111.418 53.4595 111.699 53.8315 111.701 54.2581C111.705 55.0581 111.307 55.4601 110.507 55.4639C110.241 55.4652 109.974 55.3999 109.706 55.2678C109.439 55.1358 109.159 55.0705 108.865 55.0719C108.572 55.0733 108.254 55.4082 107.91 56.0765C107.593 56.7447 107.28 58.0796 106.97 60.0811C106.686 62.0825 106.551 64.5499 106.566 67.4832C106.573 68.9232 106.925 70.1481 107.623 71.1581C108.322 72.1681 109.311 72.6699 110.591 72.6637C114.377 72.6454 117.867 71.8284 121.059 70.2129C121.245 70.1054 121.511 69.9441 121.857 69.7291C122.628 69.2453 123.133 69.0029 123.373 69.0017C124.173 68.9978 124.575 69.3959 124.579 70.1959C124.58 70.4625 124.382 70.7968 123.984 71.1988C123.586 71.6007 123.387 71.935 123.389 72.2017C123.392 72.815 123.928 73.5057 124.999 74.2739C126.096 75.0152 127.204 75.3832 128.324 75.3778C129.444 75.3723 130.642 74.9665 131.918 74.1603C133.194 73.3541 133.83 72.4444 133.825 71.4311C133.82 70.4177 133.403 69.6864 132.574 69.2371C131.772 68.7876 130.758 68.5659 129.531 68.5718C129.238 68.5733 128.825 68.6419 128.292 68.7779C127.786 68.9136 127.48 68.9818 127.373 68.9823C126.573 68.9862 126.171 68.5881 126.167 67.7881C126.165 67.3882 126.51 67.0265 127.202 66.7031C127.92 66.353 128.693 66.1759 129.519 66.1719C131.679 66.1614 133.322 66.6601 134.447 67.668C135.598 68.6758 136.178 69.993 136.186 71.6196C136.194 73.2463 135.334 74.6771 133.607 75.9122C131.879 77.1472 130.109 77.7692 128.296 77.7779C126.509 77.7866 124.853 77.1946 123.327 76.002C121.801 74.7827 121.036 73.7331 121.032 72.8531C120.127 73.3108 118.69 73.7978 116.719 74.314C114.748 74.8036 112.749 75.0533 110.722 75.0631C108.722 75.0728 107.132 74.3339 105.952 72.8462C104.771 71.3586 104.176 69.5748 104.166 67.4948C104.118 57.6283 105.694 52.6872 108.894 52.6717ZM163.58 71.2068C162.539 71.1852 161.619 71.0029 160.817 70.6602C160.069 70.3438 159.507 69.9865 159.132 69.5883C158.193 68.5529 157.471 68.0364 156.964 68.0388C156.111 68.043 155.579 68.4455 155.37 69.2466C154.849 71.7558 154.231 73.6255 153.517 74.8556C152.592 76.4601 151.435 77.2657 150.049 77.2725C148.102 77.2819 146.471 76.2765 145.154 74.2562C143.972 72.4485 142.921 70.2136 142.002 67.5514C141.298 65.5281 140.946 64.3831 140.945 64.1164C140.941 63.3165 141.339 62.9145 142.139 62.9106C142.512 62.9088 142.766 62.9876 142.9 63.147C143.061 63.3062 143.223 63.6121 143.385 64.0646C144.738 68.0848 145.737 70.68 146.382 71.8502C147.486 73.8715 148.704 74.8789 150.037 74.8725C151.184 74.8669 152.187 72.8087 153.047 68.6978C153.571 66.6686 154.859 65.649 156.912 65.639C157.659 65.6354 158.3 65.7923 158.835 66.1097C159.37 66.4271 159.771 66.7852 160.04 67.1839C160.335 67.5558 160.764 67.9137 161.325 68.2577C161.887 68.575 162.568 68.7583 163.368 68.8078C163.503 63.7404 165.224 61.1987 168.531 61.1826C170.051 61.1753 171.226 61.6096 172.057 62.4856C172.915 63.3614 173.347 64.386 173.352 65.5593C173.358 66.7326 172.99 67.8144 172.248 68.8047C171.321 70.0626 169.258 70.8326 166.059 71.1147C166.438 72.1796 167.095 73.0564 168.032 73.7452C168.995 74.4339 169.85 74.7764 170.597 74.7728C172.437 74.7639 174.275 74.4483 176.112 73.826C176.672 73.6367 176.991 73.5418 177.071 73.5414C177.871 73.5375 178.273 73.9356 178.277 74.7355C178.28 75.3222 177.882 75.7508 177.083 76.0214C174.847 76.7789 172.689 77.1627 170.609 77.1728C169.329 77.179 167.939 76.6257 166.44 75.513C164.968 74.4001 164.015 72.9647 163.58 71.2068ZM165.768 68.7161C168.113 68.5448 169.605 68.1109 170.241 67.4144C170.719 66.8788 170.956 66.2643 170.952 65.571C170.946 64.2376 170.143 63.5749 168.543 63.5826C166.756 63.5913 165.831 65.3025 165.768 68.7161ZM198.525 52.2371C198.522 51.4371 198.92 51.0352 199.72 51.0313C200.36 51.0282 200.762 51.4262 200.925 52.2255C201.308 54.117 201.609 55.7422 201.829 57.1011C202.049 58.4601 202.172 61.7662 202.197 67.0195C202.201 67.8195 201.803 68.2214 201.003 68.2253C200.203 68.2292 199.801 67.8311 199.797 67.0311C199.772 61.7778 199.635 58.3785 199.388 56.833C199.359 56.4864 199.209 55.6738 198.936 54.3951C198.663 53.1164 198.526 52.3971 198.525 52.2371ZM199.838 75.431C199.834 74.631 200.312 74.2287 201.272 74.224C202.339 74.2189 202.875 74.7496 202.88 75.8163C202.884 76.6163 202.486 77.0182 201.686 77.0221C201.259 77.0241 200.845 76.8661 200.443 76.5481C200.042 76.2034 199.84 75.831 199.838 75.431Z" fill="#FD42C8"/>
</svg>
